<svg width="168" height="287" viewBox="0 0 168 287" fill="none" xmlns="http://www.w3.org/2000/svg">
<path d="M44.2708 60.5553C43.9594 61.0897 43.3825 61.6021 42.8288 61.8363C42.0097 62.0485 41.2137 61.9825 40.683 61.9385C35.9068 61.5425 33.6225 56.8712 32.7918 54.0012L25.5465 38.2743C23.2622 33.6031 23.2968 29.9645 25.3617 27.6146C30.9568 21.3558 49.5539 29.0603 55.2299 31.4917C60.906 33.9232 64.1016 37.2694 65.1285 40.996C66.1322 45.0009 63.7327 48.1633 63.7096 48.4415C63.1328 48.9539 62.5791 49.1881 61.7831 49.1221C61.0101 48.7779 60.5255 48.1775 60.5717 47.6211C60.6178 47.0647 59.8679 46.4423 58.5874 45.7758C55.7609 44.421 51.227 44.3252 48.3891 46.3308C45.5511 48.3364 43.7515 50.7082 43.2785 53.19C42.7364 56.5065 44.4092 58.8861 44.3862 59.1643C44.3862 59.1643 44.34 59.7207 44.2708 60.5553ZM45.7702 42.4722C48.3197 40.7228 51.573 40.1522 54.4918 40.3942C56.3492 40.5482 57.9181 40.9584 59.4641 41.6468C60.237 41.991 60.7446 42.3132 61.2522 42.6354C61.2753 42.3572 61.3214 41.8008 61.0792 41.5006C60.4907 38.9308 57.7335 36.7414 53.3611 34.6982C41.2591 29.2129 30.2071 27.1761 27.5653 30.0383C26.3886 31.3413 27.4615 34.5115 28.3614 36.5469L35.849 52.574C35.849 52.574 35.8259 52.8522 36.0913 52.8742C36.3105 53.4526 36.8527 56.5789 39.1716 57.6115C38.7563 56.1765 38.3871 54.185 38.8139 52.2596C39.6675 48.4088 41.8017 45.2244 45.7702 42.4722Z" fill="black"/>
<path d="M-17.492 238.349C-11.7584 236.864 -12.5547 223.912 -13.247 219.373C-17.7582 199.671 -15.4409 123.392 30.9232 63.6506C23.528 52.9533 12.0141 30.7099 18.5667 22.5697C25.1193 14.4295 32.9872 16.2023 36.5405 18.4577C38.8825 19.2122 56.6258 24.3248 65.0475 25.8635C67.9432 26.3837 70.5274 27.4383 73.0193 29.6057C87.5899 24.6513 102.807 24.7926 116.789 30.1536C121.992 28.6242 129.987 25.6457 131.671 24.6648C134.244 22.6372 148.872 13.766 149.425 13.5318C149.714 13.2756 151.687 12.0386 154.005 13.0712C156.082 13.8037 157.801 15.6269 159.139 18.8191C159.116 19.0973 159.382 19.1193 159.359 19.3975C158.494 39.494 150.592 60.6877 148.896 65.0289C149.357 65.9076 149.553 66.7642 150.015 67.6428C151.803 68.6314 155.772 72.3218 154.838 80.3677C162.637 102.303 160.48 118.651 147.559 132.706C146.959 133.496 146.094 134.265 145.517 134.777C145.206 135.312 144.606 136.102 143.694 137.427C146.602 141.03 159.811 158.932 153.028 182.739C148.91 196.964 144.78 201.664 142.092 205.082C139.739 207.688 138.251 209.526 137.812 214.811C136.774 227.331 133.118 248.876 119.793 258.136C121.293 259.38 123.127 259.813 125.273 259.71C129.83 259.528 131.687 259.682 132.218 259.726C132.483 259.748 132.749 259.77 132.749 259.77L133.014 259.792C133.279 259.814 133.279 259.814 133.545 259.836C135.598 260.847 139.417 263.124 139.429 266.206C139.336 267.319 138.91 269.245 136.141 270.416C130.846 273.058 111.822 273.721 103.169 268.522C100.366 266.889 98.9353 264.81 98.3008 262.796C88.0794 263.629 82.9918 263.768 71.1553 264.747C72.9204 266.014 73.9126 266.937 74.6625 267.559C76.2084 268.247 77.4198 269.748 77.2583 271.696C76.9815 275.034 73.2091 278.643 63.1031 278.085C60.9804 277.909 58.5692 277.989 56.4234 278.092C53.747 278.15 51.3358 278.23 49.2131 278.054C45.233 277.724 42.095 276.904 39.9146 274.202C38.2187 272.1 37.9186 269.274 38.5069 265.401C25.5975 263.211 13.3225 256.591 3.18165 246.786C-0.394573 251.251 -5.59754 252.781 -11.0774 251.206C-15.519 249.997 -20.526 245.941 -20.4914 242.302C-20.5953 240.333 -19.4186 239.03 -17.492 238.349ZM153.221 16.0875C152.183 15.7213 151.606 16.2337 151.606 16.2337C151.341 16.2117 136.689 25.3611 134.117 27.3887C132.409 28.6477 126.895 30.7115 122.511 32.0287C128.649 35.3387 134.117 40.274 137.336 43.342C138.57 38.1222 140.427 31.8335 144.096 26.2553C148.364 19.8865 151.779 17.3685 154.502 16.7539C153.729 16.4097 153.486 16.1095 153.221 16.0875ZM155.794 20.5025C154.179 20.6487 151.145 21.7977 146.853 28.4447C142.873 34.5573 140.947 41.6806 140.243 46.9444C141.628 49.5802 144.2 53.9953 146.923 59.8233C149.403 52.4659 154.767 36.1038 155.794 20.5025ZM147.927 70.2708C147.927 70.2708 147.662 70.2488 147.685 69.9706C147.685 69.9706 147.419 69.9486 147.442 69.6704C147.177 69.6484 146.935 69.3482 146.935 69.3482C146.935 69.3482 146.093 69.8386 145.308 72.8548C144.455 76.7056 146.52 80.7984 148.331 81.5088C149.635 81.8971 150.546 80.572 151.192 79.225C152.276 72.5922 148.192 70.2928 147.927 70.2708ZM134.351 172.787L130.474 174.427L135.112 176.492C135.885 176.836 136.346 177.715 136.277 178.549C136.208 179.384 135.608 180.175 134.812 180.109C133.993 180.321 133.174 180.533 132.378 180.467C134.581 182.891 137.12 184.502 140.281 185.044C144.745 185.974 147.941 182.878 149.29 176.267C149.671 174.898 149.014 173.163 147.733 172.496C145.437 171.186 143.141 169.875 140.603 168.264C140.096 167.942 139.323 167.597 138.527 167.531C137.2 167.421 135.562 167.846 134.166 168.57C134.939 168.915 135.423 169.515 135.354 170.35C135.527 171.484 135.193 172.297 134.351 172.787ZM105.038 265.316C112.918 270.171 130.638 269.119 134.826 266.945C135.668 266.455 135.956 266.199 135.956 266.199C136.002 265.642 134.502 264.397 132.714 263.409C131.918 263.343 130.038 263.467 125.504 263.371C120.97 263.275 118.19 261.364 116.471 259.541C114.013 260.177 108.28 261.663 102.327 262.57C102.788 263.448 103.781 264.371 105.038 265.316ZM42.7987 271.64C44.7138 274.32 50.3321 274.225 56.2157 274.153C58.3615 274.051 60.7496 274.249 63.1607 274.168C70.8786 274.528 73.4513 272.501 73.5435 271.388C73.5666 271.11 73.0359 271.066 73.0359 271.066C72.2399 271 71.49 270.377 71.2938 269.521C70.2786 268.876 68.2712 267.309 64.7179 265.054C63.4143 264.666 54.5542 261.97 42.2448 265.431C41.4834 268.169 41.8296 270.439 42.7987 271.64ZM40.3988 261.917C53.8158 257.987 63.4719 260.749 65.5485 261.481C81.9419 260.319 86.7642 260.159 99.662 259.268C106.918 258.749 114.867 256.327 116.24 255.88C129.426 248.29 133.106 226.466 134.121 214.225C134.674 207.548 136.739 205.199 139.116 202.314C141.469 199.708 144.446 196.034 147.572 187.329C145.288 189.101 142.542 189.993 139.381 189.451C134.385 188.477 130.105 185.321 127.048 180.305C126.829 179.727 126.633 178.87 126.944 178.336C126.967 178.058 127.256 177.801 127.521 177.823L125.975 177.135C125.468 176.813 125.225 176.513 125.006 175.934C124.764 175.634 124.787 175.356 124.81 175.078C124.614 174.221 124.971 173.13 125.814 172.64L127.209 171.915C127.232 171.637 126.967 171.615 126.99 171.337C126.794 170.48 126.863 169.646 127.705 169.155C133.451 164.309 138.896 163.08 142.691 165.636C144.964 167.225 147.26 168.536 149.556 169.846C150.329 170.191 150.813 170.791 151.563 171.413C152.301 156.068 144.468 144.214 141.826 140.634C137.649 145.89 131.212 152.639 123.425 153.114C111.877 153.837 103.79 151.486 103.524 151.464C102.486 151.098 102.025 150.219 102.382 149.128C102.74 148.037 103.582 147.547 104.62 147.913C104.62 147.913 112.442 150.242 123.46 149.475C131.247 149 138.134 140.048 141.202 135.26L140.649 135.494L135.55 138.993C134.615 140.596 132.1 145.15 125.617 146.013C119.929 146.942 117.287 143.361 116.191 140.469C111.196 139.495 108.842 135.658 108.866 135.38C108.381 134.779 108.473 133.667 109.05 133.154C109.627 132.642 110.469 132.151 110.977 132.474C123.459 136.59 127.024 129.042 127.312 128.786C127.624 128.252 128.201 127.739 128.731 127.783C129.262 127.827 130.058 127.893 130.543 128.494C134.131 133.553 137.118 132.961 138.537 131.958L139.38 131.467C139.668 131.211 140.199 131.255 140.464 131.277L145.69 129.47C156.592 117.208 158.783 103.664 152.876 84.6869C150.569 86.7365 148.204 86.2603 147.431 85.9161C143.278 84.4513 140.867 78.0888 142.124 72.5908C142.932 69.2964 144.177 67.1588 145.839 66.4561C141.997 58.0143 138.767 51.864 136.874 48.906C135.64 47.6832 125.591 36.7659 116.466 34.0485C103.014 28.7314 87.7976 28.5901 73.7347 33.8667C73.1809 34.1009 72.3849 34.0349 71.9003 33.4345C69.6507 31.5673 67.0895 30.2345 64.7245 29.7583C55.2645 27.8535 36.2407 22.0744 35.4446 22.0084C35.1793 21.9864 35.1793 21.9864 34.937 21.6862C34.6947 21.386 27.8304 17.1753 21.5662 25.0593C17.6785 30.0592 25.443 49.1905 34.7533 62.5676C38.5374 68.4837 40.6601 68.6597 40.9255 68.6817C41.7446 68.4695 42.7828 68.8357 43.2443 69.7143C43.7058 70.5929 43.3251 71.9619 42.2176 72.4303C41.9292 72.6865 41.3755 72.9207 40.5795 72.8547C38.9874 72.7227 36.4032 71.6681 33.0575 66.9088C-11.8645 125.369 -14.2395 199.123 -9.9706 218.524C-9.77446 219.381 -5.26341 232.64 5.53504 244.18C15.4336 253.684 27.7317 260.026 40.3988 261.917ZM132.908 135.413C131.627 134.746 130.37 133.802 128.893 132.278C127.139 134.094 123.99 136.634 119.145 137.073C119.387 137.373 119.364 137.651 119.364 137.651C119.56 138.508 120.321 142.212 124.925 141.473C130.347 140.522 132.019 136.459 132.042 136.181C132.066 135.903 132.354 135.647 132.908 135.413ZM-10.7545 247.311C-8.14722 248.088 -3.12881 248.784 0.493566 243.762C-3.89043 238.637 -6.92465 233.343 -9.23204 228.95C-9.69339 234.514 -11.2622 240.546 -16.4652 242.076C-16.7305 242.054 -17.0189 242.31 -17.0189 242.31C-17.0881 243.145 -14.6423 245.868 -10.7545 247.311Z" fill="black"/>
<path d="M82.0533 72.0918C87.0948 72.5098 90.7289 77.0129 90.2906 82.2987C89.8523 87.5845 85.5262 91.4275 80.4847 91.0095C75.4433 90.5915 71.8091 86.0885 72.2474 80.8026C72.6857 75.5168 77.0118 71.6738 82.0533 72.0918ZM80.8077 87.1147C83.7264 87.3567 86.3221 85.0509 86.5758 81.9907C86.8296 78.9305 84.6491 76.2286 81.7304 75.9866C78.8116 75.7446 76.2159 78.0504 75.9622 81.1107C75.7085 84.1709 77.8889 86.8727 80.8077 87.1147Z" fill="black"/>
<path d="M128.616 109.846C134.28 109.196 138.826 112.374 139.01 116.591C139.437 121.108 135.399 124.695 129.735 125.345C128.916 125.558 128.12 125.492 127.324 125.426C122.813 125.052 119.306 122.24 119.075 118.579C118.994 116.332 119.975 114.172 121.705 112.635C123.701 111.12 126.181 110.205 128.616 109.846ZM129.504 121.685C132.734 121.392 135.572 119.387 135.492 117.139C135.388 115.17 132.319 113.515 129.089 113.807C127.474 113.953 125.812 114.656 124.659 115.681C124.082 116.193 123.194 117.24 123.367 118.375C123.205 120.322 126.274 121.977 129.504 121.685Z" fill="black"/>
<path d="M81.8938 164.236C80.8324 164.148 80.1056 163.248 79.9094 162.391C80.0017 161.278 80.8669 160.51 81.686 160.297C81.9513 160.319 85.6892 160.349 90.7076 161.045C94.93 161.676 100.606 164.107 102.394 165.096C103.767 164.649 105.163 163.925 106.536 163.478C110.7 161.583 115.846 163.97 120.737 169.418C121.222 170.018 121.418 170.875 121.084 171.687C121.06 171.966 120.795 171.944 120.772 172.222L122.03 173.166C122.779 173.789 123.218 174.946 122.618 175.736C122.595 176.014 122.307 176.271 122.283 176.549C121.972 177.083 121.684 177.339 121.13 177.574L119.492 177.998C119.734 178.298 119.734 178.298 119.976 178.598C120.195 179.177 120.149 179.733 119.838 180.268C116.285 184.455 111.808 186.885 106.698 187.301C103.837 189.585 88.7126 201.216 79.0219 202.094L78.7566 202.072C77.9606 202.006 77.2107 201.383 77.0376 200.248C76.8646 199.114 77.7298 198.345 78.8142 198.155C85.8284 197.336 96.5803 190.104 101.702 186.327C97.8377 184.606 95.2649 180.191 95.0225 173.448C94.9648 170.922 95.9684 168.484 97.9642 166.969C95.6453 165.937 92.7727 165.138 90.4077 164.662C85.6316 164.266 81.8938 164.236 81.8938 164.236ZM105.936 183.597C109.167 183.304 112.178 182.434 114.773 180.128C114 179.784 113.204 179.718 112.431 179.373C111.658 179.029 111.174 178.429 111.243 177.594C111.312 176.76 111.912 175.969 112.731 175.757L117.38 174.462L113.827 172.206C113.054 171.862 112.858 171.005 112.927 170.171C112.996 169.336 113.839 168.846 114.392 168.612C112.362 167.323 110.308 166.312 108.093 167.249C105.325 168.42 102.844 169.335 100.364 170.249C98.991 170.696 98.0797 172.021 98.2066 173.712C99.0028 180.221 101.402 183.501 105.936 183.597Z" fill="black"/>
</svg>
