<svg width="144" height="240" viewBox="0 0 144 240" fill="none" xmlns="http://www.w3.org/2000/svg">
<path d="M136.174 65.9228C136.396 66.5004 136.882 67.0991 137.391 67.4195C138.165 67.7609 138.962 67.8241 139.492 67.8662C144.27 68.2453 147.277 64.0034 148.56 61.3048L158.245 46.9514C161.253 42.7095 161.805 39.1129 160.146 36.461C155.633 29.3821 136.037 33.9881 130.044 35.4727C124.05 36.9574 120.357 39.7447 118.742 43.2571C117.106 47.0478 118.965 50.5556 118.942 50.8339C119.429 51.4326 119.938 51.753 120.734 51.8161C121.553 51.601 122.128 51.0866 122.172 50.53C122.216 49.9735 123.056 49.4801 124.427 49.0288C127.435 48.1473 131.925 48.7836 134.403 51.2205C136.88 53.6573 138.274 56.2882 138.341 58.8138C138.341 62.1742 136.307 64.2531 136.285 64.5314C136.285 64.5314 136.241 65.0879 136.174 65.9228ZM137.61 47.8344C135.375 45.6969 132.257 44.6094 129.337 44.3777C127.479 44.2303 125.865 44.3823 124.228 44.8125C123.41 45.0276 122.857 45.2637 122.304 45.4999C122.326 45.2216 122.37 44.6651 122.657 44.4078C123.652 41.9665 126.727 40.2502 131.371 38.9385C144.199 35.4757 155.435 35.2471 157.581 38.4977C158.532 39.9733 156.962 42.9291 155.746 44.7929L145.773 59.4034C145.773 59.4034 145.751 59.6817 145.485 59.6607C145.176 60.1962 144.136 63.1941 141.681 63.8394C142.323 62.4901 143.008 60.5843 142.897 58.6152C142.676 54.6772 141.083 51.1904 137.61 47.8344Z" fill="black"/>
<path d="M168.47 251.347C163.051 248.957 165.924 236.304 167.339 231.935C174.967 213.218 184.976 137.563 148.849 71.1292C157.871 61.7639 172.82 41.6674 167.665 32.5774C162.511 23.4873 154.46 23.9687 150.59 25.6218C148.157 25.9889 129.821 28.1745 121.262 28.3355C118.32 28.3821 115.6 29.0064 112.791 30.7438C99.2094 23.5055 84.169 21.192 69.5053 24.229C64.6169 21.8809 57.2068 17.6526 55.7026 16.4131C53.4905 13.9973 40.4837 2.8841 39.9749 2.5637C39.7316 2.26436 37.984 0.725539 35.5291 1.37085C33.3616 1.75895 31.3712 3.28123 29.5358 6.21597C29.5137 6.49425 29.2483 6.4732 29.2262 6.75148C26.8402 26.7246 31.2226 48.9149 32.1964 53.4727C31.5994 54.2655 31.2677 55.0792 30.6706 55.872C28.7465 56.5594 24.2348 59.5618 23.8599 67.6531C12.6269 88.0444 12.1204 104.526 22.6065 120.48C23.0711 121.357 23.8011 122.255 24.2878 122.854C24.509 123.431 24.9736 124.308 25.6595 125.763C22.2095 128.849 6.28681 144.388 9.1434 168.978C10.9149 183.68 14.2333 188.984 16.335 192.791C18.2375 195.742 19.4101 197.796 18.9905 203.083C17.997 215.606 18.1327 237.459 29.7904 248.745C28.1095 249.732 26.2295 249.863 24.1283 249.416C19.6603 248.502 17.8024 248.354 17.2716 248.312C17.0062 248.291 16.7407 248.27 16.7407 248.27L16.4753 248.249C16.2099 248.228 16.2099 248.228 15.9445 248.207C13.7549 248.873 9.6191 250.505 9.11081 253.545C9.02249 254.658 9.13335 256.627 11.6771 258.229C16.4772 261.691 35.1452 265.412 44.5226 261.676C47.5526 260.516 49.2997 258.694 50.2505 256.809C60.2039 259.279 65.2026 260.236 76.7265 263.111C74.7802 264.076 73.6523 264.827 72.8119 265.32C71.1752 265.751 69.7377 267.037 69.5832 268.985C69.3182 272.324 72.4595 276.494 82.5233 277.572C84.6467 277.741 87.0133 278.208 89.1146 278.655C91.7467 279.144 94.1134 279.612 96.2367 279.78C100.218 280.096 103.447 279.792 106.035 277.477C108.047 275.677 108.799 272.936 108.842 269.019C121.936 268.938 135.118 264.383 146.706 256.341C149.516 261.325 154.404 263.673 160.067 263.002C164.645 262.525 170.24 259.329 170.793 255.732C171.213 253.805 170.261 252.33 168.47 251.347ZM35.817 4.47407C36.9008 4.28003 37.3874 4.87871 37.3874 4.87871C37.6529 4.89977 50.6376 16.2913 52.8497 18.707C54.3318 20.2248 59.4415 23.1505 63.5557 25.1571C56.9649 27.4345 50.7724 31.4238 47.1012 33.9328C46.7244 28.5823 45.9052 22.0765 43.1838 15.9799C39.9979 9.0063 37.0337 5.97078 34.4458 4.92534C35.2641 4.71024 35.5516 4.45301 35.817 4.47407ZM32.5662 8.41665C34.1367 8.82129 36.9458 10.4443 40.1097 17.6962C43.0523 24.3705 43.8053 31.7111 43.6512 37.0195C41.86 39.3977 38.6092 43.3403 34.9826 48.6532C33.7208 40.9922 31.0644 23.9794 32.5662 8.41665ZM32.3078 58.8022C32.3078 58.8022 32.5732 58.8233 32.5953 58.545C32.5953 58.545 32.8607 58.566 32.8827 58.2878C33.1482 58.3088 33.4357 58.0516 33.4357 58.0516C33.4357 58.0516 34.1878 58.6713 34.4757 61.7745C34.6974 65.7126 31.9996 69.419 30.0975 69.8282C28.7483 70.0012 28.0625 68.5466 27.642 67.113C27.6411 60.3922 32.0423 58.7811 32.3078 58.8022ZM29.1812 162.167L32.7425 164.409L27.8325 165.7C27.0142 165.915 26.4171 166.708 26.3509 167.543C26.2847 168.378 26.7493 169.254 27.5455 169.318C28.3197 169.659 29.0939 170.001 29.8901 170.064C27.3247 172.1 24.5601 173.281 21.3531 173.307C16.7968 173.505 14.1422 169.934 13.8758 163.192C13.7208 161.78 14.6495 160.173 16.0208 159.722C18.4979 158.799 20.9749 157.875 23.7395 156.694C24.2924 156.458 25.1107 156.243 25.907 156.306C27.2341 156.411 28.7824 157.094 30.0433 158.034C29.2249 158.25 28.65 158.764 28.5837 159.599C28.23 160.691 28.4292 161.547 29.1812 162.167ZM43.1951 258.21C34.636 261.731 17.3171 257.837 13.5346 255.016C12.7825 254.397 12.5392 254.097 12.5392 254.097C12.5833 253.541 14.2641 252.554 16.1883 251.867C16.9845 251.93 18.8204 252.355 23.3104 252.992C27.8004 253.628 30.8525 252.19 32.8429 250.668C35.1654 251.692 40.5846 254.082 46.3134 255.937C45.7163 256.73 44.5884 257.48 43.1951 258.21ZM103.601 274.484C101.279 276.82 95.7496 275.821 89.9545 274.801C87.8533 274.355 85.4645 274.165 83.0979 273.697C75.4228 272.808 73.2107 270.393 73.299 269.279C73.3211 269.001 73.8519 269.043 73.8519 269.043C74.6482 269.106 75.4886 268.613 75.8203 267.799C76.9261 267.327 79.1598 266.104 83.0302 264.451C84.3794 264.278 93.5581 263.046 105.149 268.446C105.459 271.271 104.751 273.455 103.601 274.484ZM107.537 265.275C94.9289 259.234 84.9539 260.403 82.7864 260.791C66.7947 257.002 62.0613 256.066 49.4759 253.108C42.3979 251.426 34.9437 247.754 33.6608 247.092C21.8706 237.476 21.757 215.344 22.7285 203.1C23.2584 196.421 21.5992 193.769 19.7187 190.539C17.8162 187.588 15.4711 183.481 13.7889 174.387C15.7577 176.503 18.3235 177.827 21.5306 177.801C26.6177 177.645 31.3506 175.22 35.1764 170.763C35.486 170.228 35.8176 169.414 35.5964 168.836C35.6184 168.558 35.3751 168.259 35.1097 168.238L36.7463 167.807C37.2993 167.571 37.5867 167.314 37.8963 166.779C38.1838 166.521 38.2059 166.243 38.228 165.965C38.5596 165.151 38.3825 164.017 37.6304 163.397L36.3696 162.457C36.3917 162.179 36.6571 162.2 36.6792 161.921C37.0108 161.108 37.0771 160.273 36.325 159.653C31.4361 153.944 26.2603 151.854 22.1024 153.764C19.6032 154.966 17.1261 155.889 14.6491 156.813C13.8307 157.028 13.2557 157.543 12.4153 158.036C14.1605 142.773 23.8025 132.336 26.987 129.229C30.2613 135.089 35.5264 142.788 43.1352 144.511C54.4157 147.087 62.7761 146.07 63.0415 146.091C64.1252 145.897 64.7223 145.104 64.5452 143.97C64.3681 142.836 63.616 142.216 62.5323 142.41C62.5323 142.41 54.4373 143.448 43.6876 140.915C36.0789 139.191 30.725 129.245 28.4682 124.025L28.977 124.346L33.4454 128.621C34.1092 130.354 35.8571 135.253 42.1168 137.15C47.5801 138.983 50.7647 135.876 52.3126 133.198C57.3996 133.042 60.3408 129.635 60.3629 129.356C60.9379 128.842 61.0262 127.729 60.5396 127.13C60.0529 126.531 59.3008 125.912 58.7479 126.148C45.765 128.198 43.4636 120.175 43.2203 119.875C42.999 119.298 42.5123 118.699 41.9815 118.657C41.4507 118.615 40.6544 118.552 40.0794 119.066C35.7228 123.481 32.8695 122.414 31.6307 121.196L30.8786 120.576C30.6353 120.277 30.1044 120.235 29.839 120.214L24.9727 117.587C16.19 103.729 16.2102 90.0089 25.0992 72.2319C27.0459 74.6267 29.4567 74.5379 30.275 74.3228C34.61 73.5466 38.0154 67.6561 37.6607 62.0272C37.3948 58.6457 36.5098 56.3353 34.9835 55.3741C40.1359 47.6619 44.3155 42.1128 46.6596 39.4984C48.075 38.4906 59.752 29.3359 69.1961 28.125C83.329 25.0458 98.3695 27.3593 111.398 34.8338C111.907 35.1542 112.703 35.2173 113.278 34.7029C115.799 33.2227 118.542 32.3202 120.953 32.2314C130.596 31.8764 150.303 29.2395 151.099 29.3027C151.364 29.3237 151.364 29.3237 151.652 29.0665C151.939 28.8093 159.392 25.7602 164.304 34.5509C167.335 40.112 156.588 57.7416 145.243 69.443C140.555 74.6717 138.431 74.5032 138.166 74.4821C137.392 74.1407 136.308 74.3347 135.711 75.1274C135.114 75.9202 135.269 77.3326 136.286 77.9734C136.53 78.2728 137.039 78.5932 137.835 78.6563C139.427 78.7827 142.148 78.1584 146.217 74.0008C181.128 138.938 171.583 212.11 164.242 230.57C163.911 231.383 157.321 243.742 144.804 253.39C133.503 261.175 120.343 265.451 107.537 265.275ZM36.6299 125.513C38.0012 125.062 39.3945 124.332 41.0974 123.067C42.5353 125.142 45.2341 128.156 49.9454 129.37C49.6579 129.627 49.6358 129.905 49.6358 129.905C49.3042 130.719 47.9555 134.253 43.5317 132.782C38.3338 130.969 37.3379 126.689 37.3599 126.411C37.382 126.133 37.1387 125.833 36.6299 125.513ZM160.376 259.106C157.677 259.452 152.612 259.33 149.847 253.79C155 249.439 158.848 244.703 161.833 240.74C161.391 246.305 161.967 252.512 166.856 254.86C167.121 254.881 167.364 255.18 167.364 255.18C167.298 256.015 164.445 258.309 160.376 259.106Z" fill="black"/>
<path d="M97.0264 71.218C91.9835 70.8179 87.671 74.6762 87.2515 79.9636C86.832 85.2509 90.482 89.7411 95.525 90.1412C100.568 90.5413 104.88 86.683 105.3 81.3956C105.719 76.1082 102.069 71.6181 97.0264 71.218ZM95.8341 86.2452C92.9145 86.0136 90.7245 83.3195 90.9673 80.2584C91.2102 77.1973 93.7977 74.8823 96.7173 75.114C99.6369 75.3456 101.827 78.0397 101.584 81.1008C101.341 84.1619 98.7537 86.4769 95.8341 86.2452Z" fill="black"/>
<path d="M44.987 100.973C39.5016 99.4177 34.5032 101.822 33.6412 105.954C32.4917 110.343 35.8984 114.534 41.3839 116.089C42.158 116.431 42.9543 116.494 43.7505 116.557C48.2626 116.915 52.1772 114.705 52.9951 111.13C53.4371 108.924 52.8175 106.635 51.3575 104.839C49.632 103.022 47.3316 101.719 44.987 100.973ZM42.2017 112.514C39.0609 111.704 36.5834 109.267 37.0254 107.062C37.4454 105.135 40.7408 103.997 43.8816 104.806C45.4521 105.211 46.9783 106.172 47.9517 107.369C48.4383 107.968 49.1463 109.144 48.7925 110.236C48.638 112.184 45.3426 113.323 42.2017 112.514Z" fill="black"/>
<path d="M82.3304 162.183C83.3921 162.267 84.2546 161.496 84.5862 160.682C84.6746 159.569 83.9446 158.671 83.1704 158.329C82.905 158.308 79.2112 157.735 74.1462 157.613C69.8774 157.555 63.8837 159.039 61.9595 159.727C60.6766 159.065 59.4158 158.125 58.1328 157.463C54.3282 154.921 48.8653 156.448 43.1595 161.035C42.5845 161.55 42.2529 162.364 42.4521 163.22C42.43 163.498 42.6954 163.519 42.6733 163.797L41.28 164.527C40.4396 165.02 39.8204 166.091 40.285 166.968C40.2629 167.246 40.5063 167.546 40.4842 167.824C40.7055 168.402 40.9488 168.701 41.4576 169.021L43.0059 169.704C42.7184 169.961 42.7184 169.961 42.4309 170.219C42.1213 170.754 42.0772 171.311 42.2984 171.888C45.1302 176.594 49.156 179.713 54.1327 180.948C56.5882 183.663 69.6397 197.581 79.0622 200.008L79.3276 200.029C80.1239 200.093 80.9643 199.599 81.318 198.507C81.6717 197.415 80.9417 196.517 79.9022 196.155C73.1117 194.216 63.6661 185.345 59.2198 180.792C63.3115 179.716 66.5623 175.774 67.8884 169.158C68.3526 166.675 67.755 164.107 66.0296 162.29C68.4846 161.645 71.4483 161.32 73.8592 161.231C78.6367 161.61 82.3304 162.183 82.3304 162.183ZM55.4814 177.415C52.3406 176.606 49.5093 175.261 47.3193 172.567C48.1376 172.352 48.9339 172.415 49.7522 172.2C50.5705 171.985 51.1455 171.47 51.2118 170.635C51.278 169.801 50.8134 168.924 50.0392 168.582L45.6596 166.554L49.53 164.901C50.3483 164.686 50.68 163.872 50.7462 163.038C50.8125 162.203 50.0604 161.583 49.5516 161.263C51.7633 160.318 53.9529 159.652 55.9879 160.933C58.5317 162.535 60.8321 163.838 63.1325 165.14C64.4155 165.802 65.1013 167.257 64.7034 168.905C62.8685 175.201 59.9715 178.051 55.4814 177.415Z" fill="black"/>
</svg>
