<svg xmlns="http://www.w3.org/2000/svg" viewBox="0 0 512 640" x="0px" y="0px"><title>outline hamster</title><path d="M347.64,111.55a5.84,5.84,0,0,0,8.08-1.79,60.79,60.79,0,0,0,9.87-32.64A61.52,61.52,0,0,0,264.21,30.27,50.38,50.38,0,0,0,250.88,46.1a125.94,125.94,0,0,0-60.73,5.5c-3.37,1.15-6.85,2.48-10.36,4a32.26,32.26,0,0,0-56.31,21.51,5.86,5.86,0,0,0,11.71,0,20.52,20.52,0,0,1,33.45-16c-18.3,10.29-36.08,26.78-45.61,53.19C112.37,104.51,106,90.72,106,77.12a49.8,49.8,0,0,1,82.19-37.83,5.85,5.85,0,1,0,7.62-8.89A61.52,61.52,0,0,0,94.23,77.12c0,18.61,9.62,37.37,25.18,49.45q-1,4-1.67,8.32a115.63,115.63,0,0,0-24.66,3.18,5.86,5.86,0,0,0,3.07,11.31c.44-.12,44.63-11.7,82.77,13.52a5.86,5.86,0,0,0,8.12-1.66,5.85,5.85,0,0,0-1.66-8.11c-19.08-12.62-39.21-17-55.8-18,8-44.3,39.17-63.82,64.35-72.41,29.31-10,60.14-8.23,84.59,4.84,28.63,15.29,46.17,38.24,52.24,68.24a111.06,111.06,0,0,0-48.32,17.37,5.86,5.86,0,0,0,6.46,9.77c37.93-25.07,82.19-13.68,82.79-13.52a5.86,5.86,0,0,0,3.05-11.31,120.87,120.87,0,0,0-32.2-3.17A109.31,109.31,0,0,0,328.6,98.27c6.83-8.11,7.66-19.46,7.73-20.84,0-.11,0-.21,0-.31a32.3,32.3,0,0,0-32.26-32.27q-1.24,0-2.46.09a5.86,5.86,0,1,0,.87,11.68q.78-.06,1.59-.06a20.58,20.58,0,0,1,20.55,20.38A30.57,30.57,0,0,1,321.48,88,117.13,117.13,0,0,0,284,57.19a104.58,104.58,0,0,0-21.18-8.44,40.17,40.17,0,0,1,8.45-9.17c.13-.09.25-.19.37-.29a49.81,49.81,0,0,1,82.2,37.83,49.17,49.17,0,0,1-8,26.34A5.86,5.86,0,0,0,347.64,111.55Z"/><path d="M123.87,367.22a129,129,0,0,1-.45-36.68,5.86,5.86,0,1,0-11.62-1.45q-.58,4.64-.87,9.23c-5.48-.91-10.15-2.26-12.26-8.27-1.73-4.9-2-8.9-.72-11.87,6.52-15.49,16.3-24.29,23.79-29.08-.93,2.53-1.83,5.1-2.68,7.74a5.86,5.86,0,0,0,11.15,3.59,215.47,215.47,0,0,1,30.16-59.25,5.86,5.86,0,0,0-.75-8,97,97,0,0,1-24.29-32.5,5.86,5.86,0,1,0-10.65,4.87A108.15,108.15,0,0,0,148,238.36,228.57,228.57,0,0,0,128.36,273l-.17,0c-13.41,4.37-31.24,17.34-41,40.63-2.41,5.73-2.26,12.56.46,20.29,4.65,13.23,16.71,15.19,21.86,16l1.18.2a135.17,135.17,0,0,0,1.29,16.6A26.27,26.27,0,0,0,110.13,391a5.86,5.86,0,0,0,5.39,3.58,5.78,5.78,0,0,0,2.28-.47,5.86,5.86,0,0,0,3.12-7.67,14.73,14.73,0,0,1,1.64-14.51A5.88,5.88,0,0,0,123.87,367.22Z"/><path d="M409.83,413.26c2.3-16,5.25-67.36-43.18-104.94-3-2.62-45.79-41.65-27.34-108.51.12-.36.44-1.4.87-3a5.86,5.86,0,0,0-11.32-3c-.42,1.59-.7,2.49-.73,2.56s-.05.17-.07.25C307.23,271.79,357,315.47,359.13,317.3l.22.18c50.87,39.36,38.74,95.61,38.2,98a5.86,5.86,0,0,0,3.69,6.82c.6.22,1.17.45,1.73.69a19.29,19.29,0,0,1,11.35,13.69,18.73,18.73,0,0,1-10.68,21.51A5.85,5.85,0,0,0,406,469.37a5.76,5.76,0,0,0,2.35-.49,30.44,30.44,0,0,0,17.39-34.82A31.36,31.36,0,0,0,409.83,413.26Z"/><path d="M387.63,459.31a5.86,5.86,0,0,0-7.37,3.77c-2.49,7.69-8.19,13.58-16.93,17.5a49.08,49.08,0,0,1-20.15,4.1h-122v-1a20.13,20.13,0,0,1,20.11-20.11H255.8A5.85,5.85,0,0,0,259,452.84c-9.56-6.32-14.14-15.11-14-26.85a49.77,49.77,0,0,1,39-47.76,72.71,72.71,0,0,1,14.66-1.56,5.86,5.86,0,0,0-.1-11.71,84.47,84.47,0,0,0-17,1.83,61.54,61.54,0,0,0-48.22,59.08c-.1,10,2.58,18.75,7.87,26a31.85,31.85,0,0,0-31.72,31.82v6.85a5.85,5.85,0,0,0,5.85,5.85H343.18a60.47,60.47,0,0,0,24.93-5.13c11.74-5.25,19.79-13.75,23.29-24.57A5.87,5.87,0,0,0,387.63,459.31Z"/><path d="M188.38,484.68H161.53a5.51,5.51,0,0,1-5.51-5.5,15.43,15.43,0,0,1,15.41-15.41h7.74a5.86,5.86,0,0,0,3.37-10.65,168.82,168.82,0,0,1-30.73-27.37,5.86,5.86,0,0,0-8.86,7.66,170.28,170.28,0,0,0,20.46,19.86,27.17,27.17,0,0,0-19.1,25.91,17.24,17.24,0,0,0,17.22,17.21h26.85a5.86,5.86,0,0,0,0-11.71Z"/><path d="M314.79,371.86a5.85,5.85,0,0,0,4.28,7.09c.62.15,1,.25,1,.27A5.86,5.86,0,0,0,323.4,368s-.53-.15-1.52-.4A5.85,5.85,0,0,0,314.79,371.86Z"/><path d="M271.29,358.48a26.15,26.15,0,0,0,12.28-3.13c30.48-16.19,18.79-64.53,18.28-66.58a5.85,5.85,0,0,0-11.36,2.83c.1.42,10,41.51-12.42,53.41a14.12,14.12,0,0,1-19-19.28l.29-.52a5.85,5.85,0,0,0-10.12-5.88c-.15.25-.29.5-.41.72A25.23,25.23,0,0,0,253,350.59,25.56,25.56,0,0,0,271.29,358.48Z"/><path d="M230.27,304.32a5.86,5.86,0,0,0-6.62-5c-.77.11-19,2.85-25.27,18.81a5.85,5.85,0,1,0,10.9,4.27c3.72-9.47,15.77-11.45,16-11.49A5.86,5.86,0,0,0,230.27,304.32Z"/><path d="M193.64,357.79a5.86,5.86,0,0,0,7.92-2.44c7.85-14.84,19.44-14.74,20.05-14.77a5.85,5.85,0,0,0,.58-11.69c-.8,0-19.45-.81-31,21A5.86,5.86,0,0,0,193.64,357.79Z"/><path d="M215.87,441.54a5.86,5.86,0,0,0,1.77-8.09,67,67,0,0,1-7.6-58A5.86,5.86,0,0,0,199,371.71a78.69,78.69,0,0,0,8.83,68.06,5.84,5.84,0,0,0,8.09,1.77Z"/><path d="M134.85,389.57a5.84,5.84,0,0,0-7.86,2.59c-.29.56-6.89,13.94-1.34,28.48a5.85,5.85,0,0,0,5.47,3.77,5.72,5.72,0,0,0,2.09-.39,5.86,5.86,0,0,0,3.38-7.56c-3.64-9.54.76-18.83.86-19A5.85,5.85,0,0,0,134.85,389.57Z"/><path d="M204,259.1a5.94,5.94,0,0,0,1.55.2,5.85,5.85,0,0,0,1.54-11.5c-5.86-1.6-9.68-4.06-11.37-7.32a10.81,10.81,0,0,1-.49-7.87,5.86,5.86,0,0,0-10.92-4.23,22.31,22.31,0,0,0,.89,17.25C188.41,252,194.74,256.57,204,259.1Z"/><path d="M237.85,261.78a5.86,5.86,0,0,0,1.08-11.62c-13.33-2.49-14.37-12.53-14.44-13.73a5.86,5.86,0,0,0-11.7.5c.26,7,5.61,21.3,24,24.74A5.65,5.65,0,0,0,237.85,261.78Z"/><path d="M257.91,249.84a5.86,5.86,0,0,0,.48-11.69c-6.47-.54-8.19-3.73-8.26-3.87a1,1,0,0,1,.09.21l-10.84,4.44c.41,1,4.37,9.75,18,10.89Z"/><path d="M237.26,201.83a5.85,5.85,0,0,0,5.85-5.85V184.69a12.56,12.56,0,0,0,4.55-4l6-8.7a12.63,12.63,0,0,0-10.4-19.8h-12A12.63,12.63,0,0,0,220.86,172l6,8.7a12.56,12.56,0,0,0,4.55,4V196A5.85,5.85,0,0,0,237.26,201.83Zm-6.81-37.47a.86.86,0,0,1,.82-.49h12a.87.87,0,0,1,.82.49.86.86,0,0,1-.06,1l-6,8.7a.93.93,0,0,1-1.53,0l-6-8.7A.84.84,0,0,1,230.45,164.36Z"/><path d="M208.16,138.68a6.05,6.05,0,0,0,1,.54,5.82,5.82,0,0,0,1.08.32,5,5,0,0,0,1.16.12,4.91,4.91,0,0,0,1.14-.12,6.52,6.52,0,0,0,1.1-.32,8.18,8.18,0,0,0,1-.54,5.66,5.66,0,0,0,.87-.74,5.86,5.86,0,0,0-4.12-10,5.86,5.86,0,0,0-3.25,10.74Z"/><path d="M262.91,139.66a4.91,4.91,0,0,0,1.14-.12,6.16,6.16,0,0,0,1.09-.32,7,7,0,0,0,1-.54,6.44,6.44,0,0,0,.9-.74,5.87,5.87,0,0,0,0-8.28,6,6,0,0,0-4.14-1.72,5.86,5.86,0,0,0-5.86,5.86,5.83,5.83,0,0,0,1.71,4.14A5.9,5.9,0,0,0,262.91,139.66Z"/><path d="M187.69,182.18a5.86,5.86,0,0,0-3.64-7.44c-45.77-15.69-79.51,3.43-80.92,4.25a5.86,5.86,0,0,0,3,10.92,5.76,5.76,0,0,0,2.93-.79c.3-.18,30.48-17.29,71.24-3.3A5.87,5.87,0,0,0,187.69,182.18Z"/><path d="M361.75,189.91A5.86,5.86,0,0,0,364.7,179c-1.42-.82-35.15-19.94-80.93-4.25a5.86,5.86,0,1,0,3.8,11.08c40.39-13.86,70.76,3,71.25,3.3A5.76,5.76,0,0,0,361.75,189.91Z"/><text x="0" y="527" fill="#000000" font-size="5px" font-weight="bold" font-family="'Helvetica Neue', Helvetica, Arial-Unicode, Arial, Sans-serif">Created by Maxicons</text><text x="0" y="532" fill="#000000" font-size="5px" font-weight="bold" font-family="'Helvetica Neue', Helvetica, Arial-Unicode, Arial, Sans-serif">from the Noun Project</text></svg>