<svg width="21" height="42" viewBox="0 0 61 82" fill="none" xmlns="http://www.w3.org/2000/svg">
<path d="M1.86996 27.19V31.61C1.86996 31.7426 1.92264 31.8698 2.01641 31.9636C2.11018 32.0573 2.23735 32.11 2.36996 32.11H4.44996L6.36996 73.41C6.40489 74.0301 6.57626 74.6348 6.87185 75.1811C7.16744 75.7273 7.57996 76.2016 8.07996 76.57H6.81996C6.68735 76.57 6.56017 76.6227 6.46641 76.7164C6.37264 76.8102 6.31996 76.9374 6.31996 77.07V81C6.31996 81.1326 6.37264 81.2598 6.46641 81.3536C6.56017 81.4473 6.68735 81.5 6.81996 81.5H43.18C43.3126 81.5 43.4397 81.4473 43.5335 81.3536C43.6273 81.2598 43.68 81.1326 43.68 81V77.07C43.68 76.9374 43.6273 76.8102 43.5335 76.7164C43.4397 76.6227 43.3126 76.57 43.18 76.57H41.92C42.42 76.2016 42.8325 75.7273 43.1281 75.1811C43.4237 74.6348 43.595 74.0301 43.63 73.41L45.55 32.11H47.63C47.7626 32.11 47.8897 32.0573 47.9835 31.9636C48.0773 31.8698 48.13 31.7426 48.13 31.61V27.12C48.1274 26.9882 48.0739 26.8625 47.9807 26.7693C47.8875 26.6761 47.7618 26.6226 47.63 26.62H3.62996L35.29 4.07C35.356 4.02392 35.4099 3.96258 35.4471 3.8912C35.4843 3.81982 35.5038 3.7405 35.5038 3.66C35.5038 3.57949 35.4843 3.50018 35.4471 3.4288C35.4099 3.35742 35.356 3.29608 35.29 3.25L31.29 0.579999C31.2057 0.523251 31.1065 0.492935 31.005 0.492935C30.9034 0.492935 30.8042 0.523251 30.72 0.579999L23.25 5.91L17.19 4.91C17.1254 4.89897 17.0593 4.90126 16.9957 4.91674C16.932 4.93222 16.8722 4.96055 16.82 5L9.49996 10.21C9.44528 10.2465 9.3985 10.2937 9.36242 10.3486C9.32634 10.4036 9.3017 10.4653 9.28996 10.53L8.28996 16.59L0.799959 21.92C0.717896 21.9807 0.655922 22.0646 0.62205 22.1608C0.588177 22.2571 0.583967 22.3613 0.609961 22.46L1.82996 27.1C1.84141 27.1308 1.85477 27.1609 1.86996 27.19V27.19ZM10.24 10.9L17.24 5.9L22.11 6.72L9.44996 15.72L10.24 10.9ZM8.99996 17.29L12.28 14.94L31 1.61L34.11 3.68L2.60996 26.15L1.65996 22.54L8.99996 17.29ZM39 76.57H11.05C10.1433 76.61 9.25589 76.3003 8.57105 75.7047C7.88621 75.1092 7.45624 74.2734 7.36996 73.37L5.44996 32.11H44.55L42.63 73.37C42.5441 74.2645 42.1212 75.0929 41.4471 75.6871C40.773 76.2813 39.8982 76.597 39 76.57V76.57ZM42.73 80.5H7.31996V77.57H42.68L42.73 80.5ZM47.18 31.11H2.86996V27.62H47.13L47.18 31.11Z" fill="black"/>
<path d="M15.14 41.21C14.3444 41.21 13.5813 41.5261 13.0187 42.0887C12.4561 42.6513 12.14 43.4143 12.14 44.21V62.76C12.14 63.5556 12.4561 64.3187 13.0187 64.8813C13.5813 65.4439 14.3444 65.76 15.14 65.76C15.9357 65.76 16.6987 65.4439 17.2613 64.8813C17.8239 64.3187 18.14 63.5556 18.14 62.76V44.24C18.144 43.8435 18.0693 43.4502 17.9203 43.0827C17.7713 42.7153 17.551 42.381 17.272 42.0993C16.993 41.8175 16.661 41.5938 16.295 41.4412C15.9291 41.2886 15.5365 41.21 15.14 41.21V41.21ZM17.14 62.76C17.14 63.2904 16.9293 63.7991 16.5542 64.1742C16.1792 64.5493 15.6704 64.76 15.14 64.76C14.6096 64.76 14.1009 64.5493 13.7258 64.1742C13.3507 63.7991 13.14 63.2904 13.14 62.76V44.24C13.14 43.7096 13.3507 43.2009 13.7258 42.8258C14.1009 42.4507 14.6096 42.24 15.14 42.24C15.6704 42.24 16.1792 42.4507 16.5542 42.8258C16.9293 43.2009 17.14 43.7096 17.14 44.24V62.76Z" fill="black"/>
<path d="M25 37.09C24.2044 37.09 23.4413 37.4061 22.8787 37.9687C22.3161 38.5313 22 39.2944 22 40.09V66.89C22 67.6936 22.3192 68.4643 22.8875 69.0325C23.4557 69.6008 24.2264 69.92 25.03 69.92C25.8336 69.92 26.6043 69.6008 27.1725 69.0325C27.7408 68.4643 28.06 67.6936 28.06 66.89V40.11C28.0628 39.7093 27.9852 39.312 27.8319 38.9418C27.6786 38.5715 27.4526 38.2357 27.1674 37.9542C26.8822 37.6727 26.5434 37.4512 26.1712 37.3027C25.7989 37.1543 25.4007 37.082 25 37.09V37.09ZM27 66.89C27 67.4284 26.7861 67.9447 26.4054 68.3254C26.0247 68.7061 25.5084 68.92 24.97 68.92C24.4316 68.92 23.9153 68.7061 23.5346 68.3254C23.1539 67.9447 22.94 67.4284 22.94 66.89V40.11C22.94 39.5716 23.1539 39.0553 23.5346 38.6746C23.9153 38.2939 24.4316 38.08 24.97 38.08C25.5084 38.08 26.0247 38.2939 26.4054 38.6746C26.7861 39.0553 27 39.5716 27 40.11V66.89Z" fill="black"/>
<path d="M34.86 41.21C34.0643 41.21 33.3013 41.5261 32.7387 42.0887C32.1761 42.6513 31.86 43.4143 31.86 44.21V62.76C31.86 63.5556 32.1761 64.3187 32.7387 64.8813C33.3013 65.4439 34.0643 65.76 34.86 65.76C35.6556 65.76 36.4187 65.4439 36.9813 64.8813C37.5439 64.3187 37.86 63.5556 37.86 62.76V44.24C37.864 43.8435 37.7893 43.4502 37.6403 43.0827C37.4913 42.7153 37.271 42.381 36.992 42.0993C36.713 41.8175 36.381 41.5938 36.015 41.4412C35.6491 41.2886 35.2565 41.21 34.86 41.21V41.21ZM36.86 62.76C36.86 63.2904 36.6493 63.7991 36.2742 64.1742C35.8991 64.5493 35.3904 64.76 34.86 64.76C34.3296 64.76 33.8208 64.5493 33.4458 64.1742C33.0707 63.7991 32.86 63.2904 32.86 62.76V44.24C32.86 43.7096 33.0707 43.2009 33.4458 42.8258C33.8208 42.4507 34.3296 42.24 34.86 42.24C35.3904 42.24 35.8991 42.4507 36.2742 42.8258C36.6493 43.2009 36.86 43.7096 36.86 44.24V62.76Z" fill="black"/>
<path d="M32.07 11.11C31.9849 11.077 31.8923 11.068 31.8024 11.0838C31.7125 11.0997 31.6287 11.1399 31.56 11.2L29.15 13.29C29.0942 13.3381 29.0499 13.3981 29.0205 13.4656C28.991 13.5331 28.9772 13.6064 28.98 13.68L29.05 15.53L28.34 16.6C28.2882 16.6842 28.2605 16.7811 28.26 16.88V17.76C28.2579 17.8645 28.2887 17.9669 28.3479 18.053C28.4071 18.1391 28.4917 18.2045 28.59 18.24L31.22 19.13L30.62 19.88C30.5398 19.9712 30.4956 20.0885 30.4956 20.21C30.4956 20.3315 30.5398 20.4488 30.62 20.54L32.48 22.54C32.5244 22.5917 32.5797 22.6328 32.642 22.6605C32.7042 22.6882 32.7719 22.7017 32.84 22.7H33L37.65 21.57C37.7223 21.5546 37.7905 21.5239 37.85 21.48L40 19.71C40.0689 19.6524 40.1217 19.5778 40.1532 19.4937C40.1848 19.4096 40.194 19.3187 40.18 19.23L39.78 16.92L39.65 15.45L41.14 14.93C41.2274 14.8982 41.3043 14.8425 41.3619 14.7694C41.4194 14.6963 41.4554 14.6085 41.4658 14.516C41.4762 14.4235 41.4606 14.3299 41.4207 14.2458C41.3808 14.1617 41.3182 14.0905 41.24 14.04L36.82 11.16C36.7432 11.1132 36.6549 11.0884 36.565 11.0884C36.475 11.0884 36.3868 11.1132 36.31 11.16L34.59 12.09L32.07 11.11ZM34.86 13.06L36.53 12.16L39.85 14.32L38.96 14.64C38.8548 14.6752 38.7642 14.7445 38.7027 14.8368C38.6411 14.9291 38.612 15.0393 38.62 15.15L38.79 17L39.14 19.07L37.29 20.6L33.03 21.6L31.67 20.14L32.44 19.14C32.4906 19.078 32.5252 19.0046 32.5409 18.9262C32.5566 18.8477 32.5529 18.7667 32.53 18.69C32.5103 18.6118 32.4703 18.5401 32.4142 18.4822C32.358 18.4242 32.2876 18.3821 32.21 18.36L29.21 17.36V17L30 16C30.0521 15.9086 30.0796 15.8052 30.08 15.7L30 13.88L32 12.15L34.45 13.09C34.5167 13.1137 34.5876 13.1233 34.6581 13.1181C34.7287 13.113 34.7975 13.0932 34.86 13.06V13.06Z" fill="black"/>
<path d="M48.55 9.32L48.2 10.22C48.1903 10.2863 48.1903 10.3537 48.2 10.42L48.28 13.74C48.2835 13.8342 48.3135 13.9254 48.3665 14.0033C48.4196 14.0811 48.4936 14.1424 48.58 14.18L51.15 15.31C51.2753 15.3596 51.4147 15.3596 51.54 15.31L53.47 14.53L54.62 15.27C54.7005 15.322 54.7942 15.3498 54.89 15.35C54.9753 15.3516 55.059 15.3272 55.13 15.28L56.98 14.28C57.0403 14.2465 57.0928 14.2007 57.1341 14.1456C57.1755 14.0905 57.2048 14.0272 57.22 13.96L57.84 11.42L58.84 10.18L60.28 9.38C60.3732 9.33039 60.4479 9.25199 60.493 9.15649C60.538 9.06099 60.551 8.95349 60.53 8.85L60 6.08C59.9776 5.96411 59.9179 5.85873 59.83 5.78L58.13 4.39L57.92 2.5C57.9071 2.39847 57.864 2.30317 57.7962 2.22648C57.7285 2.1498 57.6392 2.09527 57.54 2.07L55.54 1.55C55.4524 1.52847 55.3606 1.53105 55.2743 1.55745C55.1881 1.58386 55.1106 1.63312 55.05 1.7L53.64 3.28L52.46 3L51.11 1.7C51.0181 1.61708 50.8988 1.57118 50.775 1.57118C50.6512 1.57118 50.5319 1.61708 50.44 1.7L47.31 4.31C47.252 4.35447 47.2053 4.41214 47.174 4.47823C47.1427 4.54431 47.1276 4.61691 47.13 4.69V8C47.1292 8.07917 47.1469 8.15744 47.1816 8.22861C47.2163 8.29977 47.2671 8.36187 47.33 8.41L48.55 9.32ZM48.13 4.88L50.73 2.71L51.86 3.8C51.9214 3.85877 51.9973 3.90019 52.08 3.92L53.69 4.32C53.7791 4.34348 53.8729 4.3419 53.9611 4.31543C54.0494 4.28896 54.1286 4.23863 54.19 4.17L55.59 2.6L57 3L57.2 4.75C57.2168 4.8786 57.2809 4.99629 57.38 5.08L59.09 6.49L59.48 8.69L58.26 9.36C58.2018 9.38846 58.1506 9.42944 58.11 9.48L57 10.84C56.9533 10.8953 56.9192 10.9602 56.9 11.03L56.31 13.48L54.92 14.26L53.8 13.54C53.7283 13.5054 53.6496 13.4875 53.57 13.4875C53.4904 13.4875 53.4117 13.5054 53.34 13.54L51.34 14.35L49.25 13.43L49.18 10.53L49.63 9.36C49.6688 9.25802 49.6733 9.14613 49.6426 9.04141C49.6119 8.93668 49.5478 8.84488 49.46 8.78L48.14 7.78L48.13 4.88Z" fill="black"/>
</svg>
